<?xml version="1.0" standalone="no"?>
<!DOCTYPE svg PUBLIC "-//W3C//DTD SVG 20010904//EN"
 "http://www.w3.org/TR/2001/REC-SVG-20010904/DTD/svg10.dtd">
<svg version="1.0" xmlns="http://www.w3.org/2000/svg"
 width="2512.000000pt" height="2512.000000pt" viewBox="0 0 2512.000000 2512.000000"
 preserveAspectRatio="xMidYMid meet">
<metadata>
Created by potrace 1.14, written by Peter Selinger 2001-2017
</metadata>
<g transform="translate(0.000000,2512.000000) scale(0.100000,-0.100000)"
fill="#000000" stroke="none">
<path d="M1891 17347 c-6 -6 -11 -15 -11 -19 0 -9 -75 -218 -91 -253 -20 -45
-37 -104 -32 -109 4 -3 2 -6 -3 -6 -5 0 -16 -21 -23 -47 -8 -27 -17 -52 -21
-58 -3 -5 -19 -48 -35 -95 -15 -47 -32 -89 -36 -94 -5 -6 -9 -16 -9 -22 0 -7
-5 -25 -12 -41 -6 -15 -12 -32 -14 -38 -2 -10 -49 -136 -61 -165 -3 -8 -7 -19
-9 -25 -3 -12 -72 -204 -81 -225 -3 -8 -7 -17 -8 -20 -1 -3 -5 -13 -9 -22 -4
-9 -9 -22 -10 -30 -2 -7 -6 -20 -9 -28 -3 -8 -22 -60 -42 -115 -20 -55 -42
-115 -50 -133 -8 -18 -15 -37 -15 -42 0 -5 -5 -21 -12 -37 -6 -15 -12 -32 -14
-38 -5 -20 -94 -260 -103 -280 -9 -18 -22 -56 -27 -77 -1 -5 -3 -10 -4 -13 -1
-3 -3 -8 -5 -12 -1 -5 -7 -21 -14 -38 -7 -16 -14 -34 -15 -40 -3 -10 -9 -26
-29 -80 -7 -16 -12 -32 -13 -35 0 -3 -4 -14 -9 -25 -29 -70 -44 -115 -39 -115
4 0 2 -6 -3 -12 -6 -7 -16 -31 -23 -53 -7 -22 -15 -44 -19 -50 -3 -5 -6 -14
-7 -20 -3 -14 -109 -301 -128 -347 -9 -21 -16 -40 -16 -43 -1 -10 -115 -326
-138 -380 -9 -22 -16 -44 -14 -48 1 -5 -1 -14 -6 -21 -5 -6 -19 -40 -31 -76
-13 -36 -27 -73 -32 -82 -5 -10 -9 -23 -9 -29 0 -6 -6 -25 -14 -42 -8 -18 -21
-52 -29 -77 -15 -45 -42 -118 -57 -155 -8 -18 -28 -75 -97 -270 -14 -38 -31
-83 -38 -100 -7 -16 -17 -43 -21 -60 -4 -16 -11 -35 -15 -41 -5 -6 -10 -19
-12 -30 -2 -10 -9 -30 -14 -44 -6 -14 -45 -122 -87 -240 -43 -118 -81 -224
-86 -235 -18 -44 -32 -85 -32 -92 0 -4 -5 -17 -11 -28 -6 -11 -12 -22 -12 -25
-2 -11 -28 -86 -34 -95 -6 -11 -7 -15 -17 -56 l-6 -25 929 2 c510 0 931 2 935
3 4 0 14 22 22 49 15 48 146 411 194 537 14 39 27 73 28 78 1 4 3 9 4 12 1 3
3 8 5 13 1 4 5 15 9 24 4 9 9 22 10 30 4 19 24 70 37 91 6 11 8 21 5 24 -3 3
1 18 9 32 7 15 25 58 38 97 14 38 42 114 62 169 20 55 37 106 38 113 0 6 5 12
10 12 6 0 8 3 4 6 -3 4 1 23 9 43 9 20 17 41 18 46 1 6 14 43 30 83 15 39 29
78 30 85 2 6 6 19 9 27 9 21 63 169 97 265 15 44 35 96 43 115 8 19 15 37 15
40 1 3 5 16 10 30 5 14 40 111 77 215 37 105 73 201 78 215 6 14 11 27 11 30
1 3 4 10 8 15 3 6 13 33 21 60 8 28 32 93 52 145 20 52 38 106 41 119 5 22 34
73 34 59 0 -3 7 -43 16 -89 9 -46 16 -92 16 -101 0 -10 2 -18 6 -18 4 0 7 -10
8 -22 0 -13 3 -39 7 -58 14 -74 26 -136 32 -170 3 -19 8 -42 11 -51 5 -18 12
-63 19 -116 2 -18 6 -36 8 -40 5 -8 8 -25 22 -120 2 -15 7 -39 10 -53 3 -14 8
-38 11 -55 3 -16 8 -41 11 -55 3 -14 11 -59 18 -100 7 -41 18 -95 24 -120 10
-46 14 -67 25 -130 10 -57 15 -84 19 -105 3 -11 8 -40 13 -65 4 -25 8 -47 9
-50 1 -3 5 -30 10 -60 5 -30 10 -59 11 -65 1 -5 3 -12 4 -15 1 -3 3 -16 6 -30
2 -14 9 -50 16 -80 6 -30 12 -64 13 -75 2 -17 44 -236 60 -315 3 -14 8 -41 10
-60 7 -47 15 -92 22 -110 3 -8 7 -29 8 -46 2 -17 6 -41 10 -53 3 -12 8 -36 10
-54 3 -18 9 -52 14 -77 11 -52 49 -254 54 -287 2 -12 7 -26 11 -30 4 -5 535
-8 1180 -9 l1173 0 16 38 c10 21 17 42 17 47 0 4 9 30 19 57 24 61 34 87 36
97 2 4 4 9 5 12 1 3 3 8 5 13 1 4 7 21 14 37 7 17 14 35 15 40 2 6 6 19 10 30
5 11 23 61 41 110 18 50 41 113 51 140 11 28 18 53 16 58 -1 4 3 7 9 7 5 0 8
3 6 8 -3 4 0 18 6 32 5 14 11 30 12 35 2 6 9 24 16 40 7 17 13 32 13 35 1 3 5
11 9 18 5 6 6 12 2 12 -3 0 -1 10 6 21 15 28 81 210 82 227 0 6 4 12 9 12 5 0
7 4 4 8 -3 5 1 19 8 33 7 13 13 26 13 29 1 3 6 18 12 33 6 16 11 31 11 35 0 7
43 124 65 177 7 17 20 55 30 85 10 30 22 61 28 68 5 6 6 12 2 12 -4 0 -2 7 5
15 7 8 10 15 7 15 -3 0 11 39 30 88 19 48 36 92 37 97 1 6 5 16 9 23 5 6 5 12
1 12 -3 0 1 12 11 26 9 14 14 28 11 31 -3 4 -2 11 3 17 5 6 25 56 44 111 20
55 48 132 62 170 15 39 28 78 30 89 2 10 9 24 15 31 6 7 10 17 9 21 -1 5 3 23
10 39 16 38 52 137 55 150 1 6 7 19 13 30 6 11 12 25 13 30 5 19 9 31 39 113
17 46 31 90 31 98 0 8 4 14 8 14 5 0 9 6 9 13 1 12 53 162 75 216 6 14 12 28
13 31 1 3 6 20 10 38 4 17 11 32 16 32 5 0 8 3 8 8 -1 4 0 9 1 12 1 3 3 12 5
20 3 14 119 334 252 695 31 83 56 156 56 163 0 6 3 12 7 12 4 0 7 6 7 13 1 13
77 225 98 272 8 16 11 33 9 37 -3 4 0 8 5 8 6 0 10 3 9 8 -2 8 21 81 31 97 3
6 6 12 6 15 1 9 87 244 101 277 8 17 14 35 14 39 0 7 34 103 60 169 40 101 57
151 54 157 -2 3 -418 6 -925 6 l-920 0 -11 -27 c-5 -14 -11 -30 -12 -36 -1 -5
-4 -14 -7 -20 -11 -17 -43 -120 -41 -127 1 -5 -3 -8 -8 -8 -6 0 -10 -5 -10
-12 0 -11 -50 -156 -70 -203 -15 -36 -23 -60 -27 -79 -2 -11 -8 -24 -13 -31
-5 -6 -11 -23 -14 -39 -3 -15 -9 -33 -14 -39 -5 -7 -12 -24 -16 -39 -3 -15
-11 -40 -18 -55 -6 -15 -12 -30 -12 -33 -2 -5 -48 -131 -69 -185 -7 -16 -12
-32 -13 -35 0 -3 -6 -18 -13 -35 -7 -16 -21 -55 -31 -85 -10 -30 -46 -129 -79
-220 -71 -190 -68 -182 -71 -195 -1 -5 -11 -32 -22 -60 -19 -49 -195 -526
-219 -595 -7 -19 -18 -49 -26 -67 -7 -17 -16 -45 -19 -62 -4 -17 -11 -31 -16
-31 -5 0 -6 -5 -3 -10 4 -6 3 -16 -2 -23 -5 -7 -24 -52 -42 -102 -18 -49 -40
-110 -49 -135 -9 -25 -16 -48 -14 -52 1 -5 -3 -8 -8 -8 -6 0 -10 -7 -10 -15 0
-8 -19 -65 -42 -127 l-43 -113 -12 65 c-6 36 -15 83 -18 105 -4 22 -8 43 -11
46 -2 4 -6 22 -9 40 -3 19 -7 43 -9 54 -2 11 -7 45 -11 75 -4 30 -10 60 -13
65 -4 6 -8 21 -9 35 -2 14 -8 45 -13 70 -5 25 -12 56 -14 70 -5 33 -37 200
-42 225 -3 11 -9 43 -14 70 -18 98 -20 110 -27 140 -3 17 -7 37 -9 45 -11 71
-14 88 -19 110 -9 37 -17 81 -20 110 -2 14 -4 25 -5 25 -2 0 -4 9 -6 20 -4 26
-21 114 -27 140 -3 11 -8 40 -13 65 -4 25 -8 47 -9 50 -4 16 -19 98 -21 115
-1 11 -3 20 -4 20 -2 0 -8 32 -15 84 -3 25 -9 49 -11 53 -3 5 -8 24 -10 41 -4
31 -15 91 -20 112 -1 6 -7 39 -14 75 -6 36 -22 120 -36 187 -13 68 -27 140
-30 160 -3 21 -10 53 -15 71 -6 18 -8 39 -5 47 3 8 0 17 -5 21 -6 3 -9 15 -6
25 3 11 2 19 -2 19 -4 0 -8 6 -8 13 0 6 -4 32 -8 57 -4 25 -9 54 -11 65 -1 11
-3 21 -4 23 -2 1 -3 10 -5 20 -1 9 -5 29 -9 43 l-8 27 -1173 0 c-845 0 -1176
-3 -1184 -11z"/>
<path d="M10448 17355 c-2 -2 -37 -6 -78 -10 -118 -10 -152 -14 -195 -21 -22
-3 -51 -8 -65 -10 -14 -3 -47 -9 -75 -14 -27 -5 -61 -12 -75 -14 -198 -38
-559 -160 -730 -248 -30 -15 -60 -28 -67 -28 -7 0 -13 -3 -13 -7 0 -5 -19 -17
-43 -28 -58 -27 -227 -128 -317 -189 -94 -64 -89 -61 -124 -91 -16 -14 -32
-25 -35 -25 -3 0 -17 -10 -31 -22 -14 -13 -48 -41 -75 -63 -170 -137 -374
-353 -526 -556 -83 -112 -163 -230 -189 -279 -7 -14 -16 -27 -19 -30 -14 -12
-161 -304 -161 -320 0 -5 -4 -10 -10 -10 -5 0 -10 -6 -10 -14 0 -7 -10 -35
-22 -62 -12 -27 -23 -53 -24 -59 -1 -5 -14 -41 -29 -80 -32 -82 -75 -218 -82
-254 -2 -14 -8 -30 -14 -37 -5 -6 -7 -13 -4 -16 3 -2 0 -20 -5 -39 -6 -19 -13
-50 -16 -69 -3 -19 -8 -44 -11 -55 -9 -26 -10 -31 -17 -85 -4 -25 -9 -56 -11
-70 -2 -14 -7 -42 -10 -62 -3 -21 -7 -53 -10 -70 -23 -153 -24 -492 -1 -648
11 -72 34 -186 43 -210 3 -8 8 -24 10 -35 2 -11 10 -37 18 -58 8 -20 15 -40
16 -45 1 -7 5 -16 39 -102 34 -86 121 -248 153 -284 9 -11 17 -24 17 -29 0 -5
10 -21 23 -36 12 -15 33 -43 47 -61 69 -94 305 -330 329 -330 3 0 18 -11 33
-25 15 -14 31 -25 37 -25 5 0 11 -3 13 -8 8 -19 259 -162 285 -162 7 0 13 -5
13 -12 0 -6 3 -8 7 -5 3 4 17 0 30 -8 13 -9 23 -13 23 -9 0 4 6 2 13 -3 6 -6
30 -16 52 -22 22 -7 49 -16 60 -21 31 -12 111 -33 175 -46 14 -3 33 -7 43 -10
11 -3 38 -8 60 -10 23 -3 58 -7 77 -11 57 -10 1930 -12 1936 -2 3 5 13 5 23
-1 10 -5 21 -7 23 -4 3 3 30 7 59 10 50 4 135 15 234 29 35 5 236 48 275 59
87 24 147 39 158 39 6 0 12 4 12 9 0 4 7 8 16 8 23 0 212 69 334 122 14 6 28
11 33 10 4 -1 7 3 7 8 0 6 6 10 14 10 26 0 355 180 377 206 6 8 17 14 24 14 6
0 25 11 41 25 16 14 32 25 35 25 9 0 184 131 187 141 2 5 8 9 14 9 5 0 15 6
23 13 7 6 42 37 76 67 166 142 360 353 503 545 36 50 73 99 81 110 8 10 15 25
15 31 0 7 4 14 9 16 5 2 34 46 65 98 30 52 59 100 63 105 12 15 135 266 137
279 1 6 8 21 14 34 7 12 9 22 5 22 -4 0 -3 4 2 8 9 6 32 59 39 87 1 6 7 19 13
30 6 11 11 22 11 25 1 7 6 22 35 110 22 66 61 214 72 271 2 11 6 28 9 37 3 9
8 31 11 47 2 17 7 41 10 54 2 12 7 42 9 65 3 22 8 55 12 71 26 138 39 557 20
685 -4 30 -10 69 -12 85 -3 24 -24 112 -48 205 -2 8 -7 29 -11 45 -4 17 -10
35 -14 40 -3 6 -6 15 -7 20 -6 31 -121 283 -135 295 -3 3 -20 30 -37 62 -18
31 -53 82 -77 115 -25 32 -55 71 -68 87 -33 44 -196 207 -246 246 -24 19 -48
40 -55 45 -13 13 -161 114 -197 134 -31 19 -217 111 -223 111 -3 0 -17 5 -33
11 -15 6 -28 9 -29 7 0 -2 -8 3 -17 11 -10 7 -17 11 -17 8 0 -3 -17 1 -37 9
-20 9 -44 17 -52 19 -9 2 -52 12 -96 24 -44 11 -102 23 -130 27 -27 3 -59 9
-70 12 -20 6 -1941 13 -1947 7z m1082 -1438 c112 -28 238 -84 277 -122 8 -8
19 -15 24 -15 5 0 17 -8 28 -17 10 -10 35 -33 55 -51 20 -19 36 -38 36 -43 0
-6 5 -7 10 -4 6 3 10 2 10 -2 0 -5 10 -19 23 -33 29 -32 110 -170 110 -187 0
-7 3 -13 7 -13 6 0 34 -81 47 -133 32 -137 22 -375 -24 -552 -8 -33 -16 -64
-18 -70 -1 -5 -4 -17 -7 -25 -3 -8 -14 -37 -23 -65 -22 -61 -98 -218 -125
-255 -11 -16 -20 -33 -20 -39 0 -6 -4 -11 -10 -11 -5 0 -10 -6 -10 -14 0 -8
-3 -16 -7 -18 -5 -1 -21 -21 -38 -43 -171 -229 -439 -424 -705 -510 -30 -10
-55 -16 -56 -14 0 2 -8 -2 -17 -10 -10 -7 -17 -11 -17 -8 0 3 -24 -1 -52 -9
-29 -8 -71 -17 -93 -20 -22 -3 -56 -8 -75 -10 -19 -3 -237 -7 -485 -8 -404 -2
-459 -1 -535 16 -47 10 -92 21 -100 25 -8 3 -18 7 -22 8 -5 2 -10 4 -13 5 -3
1 -8 3 -12 5 -31 8 -103 48 -103 56 0 6 -4 8 -9 4 -5 -3 -43 21 -83 53 -206
164 -317 387 -320 642 -2 114 6 212 21 281 5 24 12 55 15 69 10 50 15 67 41
145 31 92 133 305 146 305 5 0 9 6 9 13 0 14 96 143 154 206 48 52 107 107
156 147 19 16 37 32 38 37 2 4 10 7 17 7 7 0 16 7 19 16 3 8 10 12 16 9 5 -3
10 -3 10 2 0 19 187 121 310 168 86 34 220 71 282 79 18 3 33 5 33 6 0 1 29 4
65 6 36 3 66 6 67 8 1 1 202 1 445 0 371 -1 454 -4 508 -17z"/>
<path d="M14334 17313 c3 -27 7 -59 10 -73 3 -14 7 -45 10 -70 3 -25 8 -56 11
-70 3 -14 6 -44 7 -67 1 -24 5 -43 8 -43 3 0 5 -15 4 -32 0 -18 2 -37 5 -43 3
-5 6 -25 8 -45 2 -32 24 -189 38 -280 9 -54 25 -170 30 -215 3 -22 7 -51 10
-65 2 -14 7 -45 10 -70 3 -25 10 -72 15 -105 9 -58 11 -74 25 -180 4 -27 9
-61 11 -75 3 -14 7 -47 10 -75 5 -49 11 -90 14 -90 1 0 3 -16 5 -35 3 -34 8
-66 20 -145 9 -61 15 -106 21 -150 3 -22 7 -51 10 -65 2 -14 7 -45 10 -70 3
-25 7 -58 9 -75 2 -16 4 -30 5 -30 1 0 4 -13 5 -30 2 -16 6 -50 10 -75 4 -25
9 -63 11 -85 6 -53 12 -90 14 -90 1 0 3 -13 5 -30 7 -56 17 -130 20 -145 1 -8
5 -37 9 -65 3 -27 8 -59 10 -70 2 -11 7 -47 11 -80 4 -33 9 -69 10 -80 2 -11
6 -38 9 -60 9 -68 17 -118 27 -178 5 -31 7 -62 4 -67 -3 -6 -3 -10 2 -10 4 0
9 -12 9 -27 2 -36 12 -118 21 -163 9 -50 13 -91 13 -119 0 -12 3 -28 7 -34 3
-6 8 -27 9 -47 3 -35 40 -319 49 -370 6 -33 26 -176 31 -220 2 -19 8 -55 13
-80 9 -42 17 -87 25 -135 2 -11 11 -56 21 -100 9 -44 19 -89 21 -100 2 -11 13
-51 24 -90 12 -38 24 -81 27 -95 3 -14 11 -31 16 -39 6 -7 12 -19 13 -27 3
-18 42 -72 79 -109 55 -55 110 -92 165 -112 53 -19 80 -20 895 -18 921 2 887
0 997 63 49 29 149 119 208 189 14 16 43 52 66 79 23 27 67 79 98 117 31 37
53 67 49 67 -4 0 0 6 9 13 8 6 37 41 63 77 27 36 52 67 55 70 3 3 21 25 40 50
19 25 38 47 42 48 5 2 8 10 8 17 0 7 3 15 8 17 4 2 41 46 82 98 40 52 77 97
82 98 4 2 8 10 8 17 0 7 4 15 8 17 8 3 46 50 194 243 34 44 64 82 67 85 3 3
26 32 51 64 25 33 75 98 112 144 37 47 75 96 85 109 10 14 23 30 28 37 6 6 35
43 65 81 30 39 58 75 62 80 9 12 140 178 168 215 11 14 33 43 51 65 17 22 40
53 52 68 12 16 27 34 32 40 6 7 32 41 60 77 27 36 57 73 65 83 30 37 45 57 74
97 17 22 33 40 38 40 4 0 8 5 8 12 0 6 7 18 15 27 13 14 59 70 98 121 7 9 34
45 62 80 27 36 53 67 57 68 5 2 8 8 8 13 0 6 11 21 25 35 14 14 25 28 25 32 0
4 18 26 39 49 21 23 36 44 33 47 -3 3 0 6 6 6 7 0 12 6 12 14 0 8 4 16 9 18 5
2 50 57 102 123 51 66 97 122 101 123 4 2 8 8 8 13 0 6 11 21 25 35 14 14 25
28 25 32 0 4 14 23 30 42 16 19 35 41 41 48 6 7 33 43 61 80 28 37 58 73 66
80 9 6 12 12 6 12 -5 0 -4 4 2 8 9 6 173 212 264 332 36 48 195 251 219 280
17 21 83 106 113 145 4 6 20 26 36 45 16 19 75 96 133 170 57 74 107 140 112
145 4 6 17 22 30 37 12 14 35 45 51 67 17 23 33 41 38 41 4 0 8 5 8 10 0 6 5
16 10 23 40 47 57 69 96 119 24 31 44 59 44 62 0 9 -2010 6 -2010 -3 0 -3 -15
-22 -33 -42 -17 -20 -39 -47 -47 -59 -8 -12 -20 -28 -25 -34 -6 -6 -26 -31
-45 -56 -19 -25 -37 -47 -40 -50 -3 -3 -27 -34 -55 -70 -27 -36 -58 -74 -67
-84 -10 -11 -20 -28 -24 -38 -3 -10 -9 -18 -13 -18 -4 0 -22 -20 -40 -45 -17
-24 -37 -50 -44 -57 -7 -7 -25 -31 -41 -53 -17 -22 -38 -49 -47 -60 -10 -11
-54 -67 -99 -125 -89 -116 -120 -156 -135 -174 -5 -6 -23 -29 -40 -51 -16 -22
-34 -45 -40 -51 -5 -6 -19 -23 -30 -38 -11 -16 -25 -33 -30 -40 -6 -6 -31 -38
-55 -71 -25 -33 -51 -64 -57 -68 -7 -4 -13 -12 -13 -17 0 -6 -8 -18 -17 -28
-10 -10 -29 -32 -43 -51 -30 -40 -116 -150 -133 -171 -7 -8 -38 -49 -70 -90
-31 -41 -63 -82 -70 -90 -8 -8 -47 -58 -87 -110 -41 -52 -78 -99 -82 -105 -5
-5 -48 -62 -97 -125 -49 -63 -96 -123 -105 -132 -9 -10 -16 -22 -16 -27 0 -5
-4 -11 -8 -13 -7 -2 -100 -119 -191 -238 -11 -14 -28 -35 -38 -47 -10 -12 -27
-34 -38 -49 -20 -28 -61 -79 -80 -100 -5 -6 -17 -22 -25 -35 -8 -12 -25 -33
-37 -46 -13 -13 -23 -28 -23 -33 0 -4 -3 -10 -8 -12 -6 -3 -25 -26 -112 -139
-14 -18 -46 -60 -72 -93 -25 -34 -56 -71 -67 -84 -12 -12 -29 -35 -38 -50 -10
-15 -26 -36 -36 -47 -10 -11 -28 -33 -40 -48 -12 -16 -43 -56 -69 -90 -51 -66
-51 -66 -86 -111 -12 -16 -23 -25 -23 -20 -1 5 -3 20 -4 34 -1 14 -5 36 -9 50
-3 14 -8 43 -11 65 -2 22 -7 58 -10 80 -4 22 -8 54 -10 70 -2 17 -6 41 -9 55
-4 23 -14 90 -21 150 -6 51 -15 113 -21 144 -3 17 -7 47 -9 66 -2 19 -6 46 -9
60 -3 14 -8 48 -12 75 -3 28 -7 59 -9 70 -5 29 -14 94 -21 145 -6 46 -8 62
-18 115 -3 17 -8 50 -11 75 -5 44 -9 73 -21 148 -3 20 -7 55 -9 77 -2 22 -5
42 -6 45 -3 7 -4 15 -14 85 -5 33 -9 62 -10 65 -1 3 -5 34 -10 70 -5 36 -9 67
-10 70 -1 3 -5 32 -9 65 -4 33 -10 71 -12 85 -2 14 -6 40 -9 58 -3 17 -8 49
-11 70 -3 20 -7 53 -10 72 -2 19 -7 51 -10 70 -4 19 -8 44 -10 55 -14 123 -27
214 -38 275 -3 14 -7 45 -10 70 -3 25 -8 60 -10 78 -9 61 -47 317 -52 352 -3
19 -7 46 -10 60 -2 14 -6 43 -8 65 -3 22 -7 51 -10 65 -3 14 -7 41 -10 60 -2
19 -7 60 -12 90 -4 30 -8 63 -8 73 0 16 -47 17 -848 17 l-848 0 4 -47z"/>
<path d="M22208 17355 c-2 -2 -16 -6 -31 -9 -95 -17 -185 -66 -261 -142 -34
-34 -130 -149 -186 -222 -19 -25 -76 -94 -101 -123 -10 -12 -19 -25 -19 -28 0
-3 -13 -20 -28 -37 -15 -17 -38 -46 -52 -64 -14 -18 -32 -41 -40 -51 -8 -11
-24 -31 -35 -45 -11 -14 -24 -31 -30 -37 -5 -7 -30 -39 -55 -72 -25 -33 -49
-65 -55 -71 -5 -6 -21 -25 -35 -43 -24 -31 -52 -67 -274 -351 -96 -123 -113
-145 -175 -225 -17 -22 -40 -50 -51 -63 -11 -13 -34 -43 -52 -68 -17 -24 -35
-44 -40 -44 -5 0 -7 -4 -4 -9 4 -5 3 -11 -1 -13 -8 -3 -31 -32 -173 -213 -112
-144 -114 -146 -127 -160 -7 -8 -13 -18 -13 -23 0 -6 -3 -12 -8 -14 -4 -2 -25
-25 -47 -53 -22 -27 -43 -51 -47 -53 -5 -2 -8 -10 -8 -17 0 -7 -3 -15 -8 -17
-4 -1 -23 -23 -42 -48 -19 -25 -39 -50 -45 -56 -5 -7 -35 -44 -65 -84 -30 -40
-70 -88 -87 -109 -18 -20 -33 -41 -33 -46 0 -6 -9 -17 -20 -25 -11 -8 -20 -19
-20 -24 0 -5 -8 -16 -18 -25 -10 -9 -27 -31 -37 -48 -11 -18 -22 -33 -26 -33
-3 0 -19 -19 -35 -42 -16 -23 -36 -50 -44 -59 -8 -9 -25 -29 -37 -45 -39 -52
-57 -75 -93 -119 -19 -24 -48 -62 -64 -84 -17 -23 -33 -41 -38 -41 -4 0 -8 -7
-8 -15 0 -7 -8 -19 -17 -24 -10 -6 -14 -11 -10 -11 4 0 -3 -11 -17 -24 -15
-13 -26 -26 -26 -30 0 -3 -7 -14 -15 -23 -8 -10 -37 -47 -66 -83 -28 -36 -59
-75 -70 -88 -10 -12 -19 -27 -19 -32 0 -6 -4 -10 -8 -10 -5 0 -28 -27 -52 -60
-24 -33 -47 -60 -52 -60 -4 0 -8 -7 -8 -15 0 -8 -4 -15 -10 -15 -5 0 -10 -4
-10 -10 0 -5 -8 -18 -17 -28 -10 -10 -29 -33 -43 -52 -14 -19 -33 -42 -42 -52
-10 -10 -18 -21 -18 -24 0 -3 -6 -11 -12 -18 -7 -7 -22 -25 -33 -40 -11 -16
-25 -33 -30 -40 -6 -6 -42 -51 -80 -101 -38 -49 -72 -92 -75 -95 -3 -3 -18
-23 -34 -45 -16 -22 -36 -47 -43 -55 -8 -8 -50 -62 -95 -120 -44 -58 -84 -106
-89 -108 -5 -2 -9 -8 -9 -13 0 -6 -21 -36 -47 -68 -27 -31 -59 -72 -73 -90
-83 -111 -254 -327 -262 -329 -4 -2 -6 -8 -2 -13 3 -5 1 -9 -3 -9 -5 0 -27
-24 -48 -52 -22 -29 -56 -74 -77 -99 -21 -26 -38 -49 -38 -52 0 -7 4167 -3
4174 4 3 3 44 59 90 125 47 65 94 130 105 144 12 14 21 31 21 38 0 6 3 12 8
12 4 0 32 36 61 80 30 44 58 80 63 80 4 0 7 3 6 8 -2 4 47 76 107 161 61 84
132 186 159 225 27 39 53 73 58 74 4 2 8 8 8 13 0 10 10 24 42 59 9 10 14 21
11 24 -4 3 -1 6 5 6 7 0 12 7 12 15 0 7 8 19 18 24 9 6 13 11 9 11 -4 0 1 10
12 21 11 12 41 55 68 95 49 75 62 87 64 57 0 -10 3 -27 5 -38 3 -11 7 -38 10
-60 3 -22 7 -51 10 -65 2 -14 7 -41 9 -60 3 -19 13 -78 21 -130 8 -52 17 -106
19 -120 6 -46 27 -175 31 -200 3 -14 7 -40 9 -59 3 -19 8 -48 11 -65 10 -56
16 -101 18 -126 1 -14 5 -34 8 -45 6 -19 15 -79 23 -150 3 -27 12 -77 20 -115
2 -8 4 -22 4 -30 1 -14 92 -16 866 -16 595 0 865 3 866 11 2 13 2 13 -6 65 -4
25 -8 54 -10 65 -1 11 -3 20 -4 20 -1 0 -4 23 -6 50 -2 28 -6 64 -8 80 -3 17
-11 64 -16 105 -6 41 -13 86 -15 100 -3 14 -7 45 -10 70 -4 25 -8 56 -10 70
-3 14 -7 48 -10 75 -3 28 -8 61 -10 75 -5 29 -15 100 -21 148 -3 17 -7 47 -9
65 -3 17 -8 52 -10 77 -3 25 -8 56 -11 70 -5 27 -12 73 -20 140 -3 25 -7 56
-10 70 -4 24 -32 221 -40 285 -2 17 -6 48 -9 70 -4 22 -9 58 -12 80 -3 22 -7
54 -10 70 -3 17 -7 48 -9 70 -3 22 -7 51 -10 65 -5 24 -12 79 -20 145 -2 17
-6 48 -9 70 -4 22 -8 54 -10 70 -15 107 -19 132 -22 149 -2 10 -6 44 -10 75
-3 31 -8 63 -9 73 -2 9 -6 38 -10 65 -4 26 -9 59 -11 73 -5 28 -10 63 -19 135
-7 51 -12 84 -21 145 -6 43 -13 91 -28 210 -6 43 -12 82 -21 143 -2 15 -7 47
-10 70 -3 23 -8 58 -11 77 -2 19 -6 49 -8 65 -2 17 -7 46 -10 65 -4 19 -8 49
-10 65 -7 55 -17 130 -23 165 -3 19 -6 49 -8 65 -2 17 -6 46 -9 65 -3 19 -8
53 -11 75 -3 22 -8 51 -10 65 -2 14 -6 48 -9 75 -4 28 -8 61 -11 75 -3 14 -7
48 -10 75 -3 28 -8 57 -10 65 -2 8 -7 40 -10 70 -3 30 -8 62 -10 70 -2 8 -7
40 -10 70 -4 30 -9 71 -12 90 -2 19 -6 49 -8 65 -2 17 -6 44 -9 60 -3 17 -9
50 -12 74 -8 62 -40 130 -72 158 -35 30 -121 72 -164 80 -34 6 -1884 14 -1890
8z m547 -1627 c4 -29 8 -62 10 -73 7 -42 18 -112 22 -150 7 -59 10 -80 12 -80
2 0 8 -36 15 -95 5 -37 23 -158 30 -200 3 -14 7 -47 11 -75 3 -27 8 -59 10
-70 5 -22 14 -83 20 -130 8 -59 17 -117 21 -138 3 -12 7 -42 9 -67 2 -25 7
-56 10 -70 5 -26 10 -58 21 -145 7 -53 12 -80 14 -80 1 0 3 -18 5 -40 2 -22 6
-53 10 -70 3 -16 10 -61 15 -100 5 -38 12 -81 14 -94 3 -12 8 -44 11 -70 3
-25 8 -59 11 -76 5 -30 6 -38 19 -125 3 -25 8 -56 11 -70 3 -14 8 -47 11 -75
7 -68 10 -90 12 -90 7 0 8 -36 1 -40 -12 -7 -1358 -7 -1370 0 -5 3 -11 2 -14
-3 -3 -5 -20 -7 -38 -6 -35 3 -428 6 -440 3 -9 -1 -27 -1 -159 0 l-100 1 28
38 c15 20 30 39 33 42 4 3 19 23 35 45 17 22 32 42 35 45 3 3 21 25 40 50 19
25 37 47 40 50 3 3 17 21 32 42 15 20 35 43 44 52 8 9 13 16 9 16 -4 0 0 6 7
13 7 8 24 28 38 46 14 18 30 38 35 44 6 7 33 41 60 77 58 76 59 77 86 110 12
14 40 50 63 80 22 30 43 57 46 60 3 3 28 34 55 70 28 36 55 70 60 76 6 6 19
23 30 38 11 16 25 33 30 40 6 6 26 32 45 56 19 25 38 47 42 48 4 2 8 10 8 18
0 8 4 14 9 14 5 0 13 9 16 20 4 11 11 18 16 15 5 -4 9 -2 9 4 0 8 197 267 278
366 10 11 46 59 82 105 35 47 68 88 73 91 5 3 16 18 25 31 37 56 126 168 134
168 4 0 8 5 8 11 0 11 69 102 83 107 4 2 7 8 7 12 0 5 10 20 23 33 12 13 29
33 37 46 8 13 27 37 42 55 15 17 28 34 28 39 0 4 4 7 9 7 5 0 12 -24 16 -52z"/>
<path d="M3464 11779 c-2 -3 -15 -39 -29 -80 -15 -41 -29 -81 -32 -89 -4 -8
-7 -18 -7 -22 -1 -3 -4 -10 -8 -14 -5 -4 -8 -14 -8 -22 0 -8 -6 -28 -14 -45
-13 -30 -50 -126 -52 -137 0 -3 -4 -12 -7 -20 -4 -8 -36 -98 -72 -200 -36
-102 -71 -196 -77 -210 -6 -14 -12 -29 -14 -35 -3 -11 -61 -170 -71 -195 -3
-8 -7 -22 -9 -30 -2 -8 -7 -23 -13 -35 -6 -11 -22 -54 -37 -95 -14 -41 -42
-118 -61 -170 -19 -52 -45 -124 -58 -160 -12 -36 -32 -89 -44 -117 -11 -29
-17 -53 -13 -53 4 0 3 -4 -3 -8 -5 -4 -23 -45 -39 -92 -16 -47 -34 -98 -41
-115 -19 -46 -74 -198 -77 -215 -2 -8 -5 -17 -8 -20 -8 -7 -34 -93 -32 -102 1
-5 -2 -8 -8 -8 -5 0 -10 -9 -10 -20 0 -11 -5 -20 -12 -20 -6 0 -9 -3 -5 -6 3
-3 -12 -54 -33 -112 -57 -159 -153 -421 -205 -562 -26 -69 -48 -132 -50 -140
-2 -8 -4 -16 -5 -17 -2 -2 -3 -6 -4 -10 -2 -5 -7 -19 -13 -33 -6 -14 -35 -90
-63 -170 -28 -80 -56 -156 -62 -170 -7 -14 -12 -27 -13 -30 -4 -18 -18 -58
-25 -75 -5 -11 -23 -60 -40 -110 -17 -49 -36 -99 -41 -110 -27 -58 -47 -135
-36 -136 60 -2 3318 -1 3321 2 2 2 42 121 91 264 48 143 91 265 96 270 4 6 10
22 12 35 5 23 9 36 42 115 7 17 21 55 31 85 11 30 24 58 29 62 6 4 7 8 3 8 -3
0 9 39 28 86 19 48 33 88 31 90 -2 2 -423 4 -935 4 -877 0 -932 1 -932 18 0 9
7 30 15 46 8 15 15 33 15 38 0 6 6 24 14 41 8 18 28 70 45 117 45 128 91 253
98 270 3 8 7 17 8 20 1 3 4 12 7 20 67 181 101 277 101 288 0 6 3 12 7 12 4 0
7 6 8 13 1 17 34 111 41 117 3 3 7 12 9 20 3 13 61 176 79 220 3 8 7 22 9 30
2 8 7 23 12 35 12 25 103 272 106 288 2 7 8 26 15 42 6 17 16 44 22 60 6 17
17 44 24 60 7 17 22 57 33 90 11 33 37 103 57 155 20 52 38 102 40 110 5 20
84 240 95 265 5 11 21 54 35 95 15 41 30 84 35 95 4 11 27 72 50 135 22 63 44
122 47 130 4 8 7 18 7 22 1 3 4 10 9 14 4 4 7 13 7 20 0 7 5 25 12 41 6 15 13
37 15 48 3 20 -2 20 -718 20 -396 0 -723 -3 -725 -6z"/>
<path d="M7370 11782 c0 -5 -31 -7 -69 -5 l-68 5 -18 -44 c-9 -24 -28 -74 -42
-113 -13 -38 -28 -79 -33 -90 -8 -19 -77 -208 -84 -230 -2 -5 -6 -19 -10 -30
-5 -11 -12 -32 -18 -47 -6 -15 -10 -31 -10 -35 0 -4 -5 -17 -11 -28 -6 -11
-12 -24 -13 -30 -6 -25 -69 -201 -74 -205 -8 -8 -42 -114 -38 -121 2 -3 -4
-14 -12 -23 -8 -10 -15 -25 -16 -33 -1 -8 -6 -22 -10 -31 -4 -9 -8 -24 -10
-32 -2 -8 -7 -23 -13 -35 -12 -24 -92 -241 -95 -258 -4 -15 -14 -43 -32 -84
-8 -17 -14 -35 -14 -40 0 -4 -20 -61 -44 -125 -24 -65 -41 -118 -38 -118 4 0
2 -4 -3 -8 -6 -4 -18 -32 -28 -62 -11 -30 -21 -62 -24 -70 -4 -8 -5 -18 -5
-22 1 -5 -3 -8 -9 -8 -5 0 -8 -4 -5 -8 2 -4 -2 -21 -9 -37 -8 -17 -27 -68 -44
-115 -16 -47 -39 -109 -50 -137 -10 -29 -17 -53 -14 -53 3 0 0 -7 -7 -15 -7
-8 -9 -15 -4 -15 5 0 5 -4 -1 -8 -5 -4 -18 -32 -29 -62 -10 -30 -23 -66 -29
-80 -6 -14 -11 -27 -12 -30 0 -3 -9 -30 -20 -60 -11 -30 -20 -57 -20 -60 -1
-3 -6 -16 -13 -30 -6 -14 -32 -83 -57 -155 -26 -71 -55 -153 -66 -181 -11 -29
-22 -58 -23 -65 -2 -8 -9 -27 -16 -44 -7 -16 -14 -35 -15 -41 -2 -6 -28 -80
-60 -165 -31 -84 -58 -161 -60 -170 -2 -9 -8 -25 -13 -35 -10 -20 -45 -111
-48 -129 -3 -15 -62 -171 -90 -237 -13 -32 -21 -58 -19 -58 2 0 -5 -21 -15
-46 -11 -25 -20 -50 -20 -55 0 -5 288 -9 714 -9 l714 0 52 143 c28 78 56 156
62 172 5 17 14 39 19 50 5 11 24 65 44 120 19 55 38 107 42 115 3 8 7 18 8 23
2 4 4 9 5 12 1 3 3 8 4 13 4 17 29 89 41 117 7 17 18 44 23 60 14 41 71 196
79 215 3 8 7 22 9 30 2 9 10 32 19 53 8 20 16 39 16 42 0 2 9 28 20 57 36 94
100 273 103 283 1 6 8 21 16 35 7 14 13 26 12 28 -3 3 1 17 12 47 30 79 75
204 81 225 4 14 13 39 20 55 25 57 128 349 128 362 0 7 4 13 8 13 4 0 10 12
14 28 3 15 22 68 40 117 18 50 63 173 99 275 37 102 73 201 81 220 26 66 186
510 189 525 1 6 5 15 8 21 7 11 37 90 43 114 2 8 9 29 16 45 6 17 13 35 14 40
2 6 26 73 55 150 29 77 53 145 54 152 1 7 5 16 9 19 4 4 7 15 7 25 0 16 -25
17 -388 17 -214 -1 -394 2 -400 6 -7 4 -12 4 -12 -1 0 -10 -453 -9 -469 1 -6
4 -11 3 -11 -2z"/>
<path d="M9303 11782 c-6 -4 -53 -7 -103 -6 -98 2 -99 1 -114 -61 -2 -5 -6
-17 -9 -25 -11 -26 -57 -153 -74 -200 -8 -25 -22 -60 -30 -78 -8 -18 -15 -42
-16 -52 -1 -11 -5 -20 -9 -20 -4 0 -8 -6 -8 -14 0 -12 -42 -134 -70 -201 -4
-11 -13 -36 -20 -55 -7 -19 -16 -44 -20 -55 -5 -11 -29 -78 -55 -150 -25 -71
-49 -137 -52 -145 -4 -8 -7 -17 -8 -20 -1 -6 -43 -120 -52 -140 -3 -8 -7 -21
-9 -29 -1 -7 -12 -37 -23 -67 -12 -30 -30 -80 -42 -111 -12 -32 -25 -67 -29
-78 -5 -11 -18 -47 -30 -80 -11 -33 -24 -67 -27 -75 -3 -8 -7 -17 -8 -20 -3
-9 -11 -31 -64 -176 -28 -77 -51 -144 -51 -148 0 -4 -7 -23 -16 -44 -10 -20
-18 -43 -20 -50 -1 -8 -6 -21 -10 -30 -4 -9 -8 -19 -8 -22 -2 -10 -48 -135
-57 -155 -13 -30 -129 -354 -129 -361 0 -3 -7 -20 -15 -37 -8 -18 -37 -95 -64
-172 -67 -190 -110 -306 -121 -330 -8 -18 -20 -54 -26 -80 -2 -5 -17 -46 -34
-90 -17 -44 -42 -114 -56 -155 -15 -41 -32 -88 -40 -105 -7 -16 -22 -57 -33
-90 -11 -33 -25 -73 -32 -90 -7 -16 -13 -34 -14 -40 -2 -5 -14 -40 -28 -77
-15 -38 -25 -69 -24 -69 1 -1 327 -2 724 -3 l721 -1 30 80 c85 230 111 302
117 328 4 15 11 27 15 27 5 0 9 8 8 18 0 17 94 282 112 314 5 9 12 32 15 50 3
18 11 35 16 39 6 3 10 9 10 13 0 3 1 11 3 18 14 44 38 114 66 188 17 47 46
128 65 180 18 52 48 133 65 180 18 47 33 90 34 95 2 6 8 24 15 40 7 17 15 42
18 58 3 15 9 27 13 27 4 0 11 15 15 33 4 17 8 34 9 37 3 12 49 137 57 155 5
11 18 47 29 80 12 33 25 69 30 80 11 23 39 103 45 125 2 8 9 29 15 45 11 28
13 28 20 10 4 -12 11 -43 14 -70 4 -27 9 -51 11 -54 1 -3 6 -23 9 -43 3 -21 9
-55 12 -75 3 -21 8 -41 10 -44 2 -4 6 -24 9 -45 3 -22 8 -50 11 -64 3 -14 7
-36 9 -50 2 -14 4 -25 5 -25 1 0 3 -13 5 -30 1 -16 3 -30 5 -30 1 0 4 -13 6
-30 2 -16 9 -49 14 -72 5 -22 12 -58 16 -80 3 -21 12 -69 19 -108 8 -38 19
-97 25 -130 5 -33 13 -71 16 -85 3 -14 7 -36 9 -50 2 -14 10 -61 19 -105 9
-44 18 -91 20 -105 3 -14 8 -36 11 -50 3 -14 7 -38 9 -55 2 -16 11 -64 19
-105 9 -41 19 -91 22 -110 3 -19 15 -80 25 -135 20 -101 25 -131 36 -195 8
-47 12 -65 14 -65 2 0 7 -32 11 -72 2 -18 6 -33 9 -33 3 0 6 -19 8 -42 2 -24
7 -47 13 -53 10 -10 1828 -15 1827 -5 -1 3 2 12 5 20 22 51 87 235 87 246 0 8
4 14 10 14 5 0 9 3 9 8 -1 4 0 10 1 15 1 4 4 12 5 17 1 6 4 12 5 15 1 3 3 8 4
13 2 12 37 105 47 127 6 12 11 27 13 35 2 8 9 29 15 45 7 17 21 55 31 85 10
30 24 69 31 85 6 17 13 35 15 40 1 6 19 55 39 110 20 55 37 105 38 110 1 6 4
12 7 15 3 3 11 23 18 45 13 40 47 132 62 170 4 11 15 43 25 70 9 28 20 59 25
70 22 53 52 134 54 146 1 8 10 31 19 53 9 21 17 41 17 45 0 3 18 52 39 109 22
56 37 102 34 102 -3 0 -1 6 4 13 8 9 31 67 38 97 1 3 5 12 8 20 3 8 23 60 43
115 96 267 118 325 141 385 13 35 25 72 26 82 1 10 5 18 9 18 4 0 8 6 8 14 0
8 9 36 20 62 11 26 22 56 25 68 2 12 4 22 6 24 1 1 2 5 3 10 2 4 7 18 13 32
15 35 38 94 38 100 0 3 5 19 12 35 6 17 25 66 41 110 16 44 33 89 37 100 5 11
9 23 10 28 2 4 3 8 5 10 1 1 3 9 5 17 3 15 42 122 104 288 17 45 27 82 23 82
-4 0 -2 4 4 8 6 4 30 63 54 132 23 69 49 137 57 152 7 15 13 29 12 30 0 2 4
16 10 31 6 16 11 34 11 41 0 6 5 17 12 24 7 7 8 12 4 12 -5 0 -3 7 4 15 6 8 9
18 6 23 -3 6 -60 9 -127 8 -66 0 -123 2 -126 7 -2 4 -9 4 -16 0 -15 -9 -298
-10 -304 0 -2 4 -9 4 -16 0 -15 -9 -298 -10 -304 0 -2 4 -9 4 -15 1 -16 -10
-318 -11 -318 -1 0 5 -6 5 -12 0 -7 -4 -53 -7 -102 -8 l-89 0 -27 -72 c-16
-40 -26 -73 -23 -73 3 0 0 -6 -6 -14 -7 -8 -13 -22 -15 -32 -2 -11 -16 -50
-31 -89 -15 -38 -28 -74 -29 -80 -1 -5 -7 -19 -12 -30 -6 -11 -21 -54 -35 -95
-13 -41 -26 -77 -29 -80 -3 -3 -6 -9 -7 -15 -1 -10 -57 -164 -70 -195 -3 -8
-7 -22 -9 -30 -2 -8 -7 -23 -13 -35 -14 -26 -98 -262 -106 -297 -4 -16 -11
-28 -16 -28 -5 0 -8 -3 -7 -7 2 -5 -2 -21 -9 -38 -32 -87 -75 -208 -77 -218
-1 -7 -7 -22 -14 -33 -6 -12 -8 -24 -5 -28 3 -3 0 -6 -7 -6 -7 0 -11 -3 -7 -6
3 -3 -3 -26 -13 -50 -11 -24 -19 -45 -19 -47 0 -3 -6 -21 -46 -127 -20 -52
-38 -102 -40 -110 -5 -21 -44 -131 -56 -155 -5 -11 -22 -57 -38 -103 -16 -46
-32 -86 -35 -89 -3 -4 -6 -18 -6 -32 0 -17 -3 -22 -10 -15 -11 11 -23 58 -22
87 0 9 -2 17 -6 17 -4 0 -7 10 -8 23 -1 25 -11 87 -18 108 -3 8 -7 32 -10 54
-2 22 -7 47 -10 55 -3 8 -8 29 -10 45 -2 17 -9 55 -16 85 -6 30 -13 69 -16 85
-2 17 -6 41 -9 55 -4 14 -8 36 -11 50 -2 14 -7 39 -11 55 -3 17 -7 39 -9 50
-2 11 -5 31 -8 45 -3 13 -8 42 -12 64 -3 22 -7 43 -9 46 -2 3 -6 24 -10 47 -5
38 -28 153 -40 209 -3 11 -7 36 -9 55 -3 19 -5 34 -6 34 -1 0 -3 11 -6 25 -4
26 -19 104 -30 155 -3 17 -7 37 -8 45 -1 8 -6 29 -10 45 -3 17 -9 46 -12 65
-3 19 -7 44 -9 55 -2 11 -7 34 -10 50 -3 17 -10 53 -15 80 -5 28 -12 61 -14
75 -2 14 -9 45 -14 70 -6 25 -14 65 -17 90 -8 48 -8 51 -18 90 -4 14 -9 42
-11 62 -3 21 -7 42 -10 47 -4 5 -33 8 -67 7 -33 -1 -62 1 -65 6 -3 5 -10 5
-17 1 -15 -9 -298 -10 -304 0 -2 4 -12 4 -21 -1 -20 -9 -589 -8 -598 1 -4 3
-15 2 -26 -4 -13 -7 -23 -7 -31 0 -7 5 -18 7 -24 3 -14 -9 -391 -8 -399 1 -4
4 -15 2 -26 -4 -13 -7 -23 -7 -31 0 -7 5 -18 7 -24 3z"/>
<path d="M14250 11782 c0 -4 -36 -7 -80 -6 l-79 2 -15 -42 c-105 -288 -148
-404 -153 -416 -3 -8 -7 -17 -8 -20 -11 -45 -51 -147 -59 -152 -6 -4 -8 -8 -4
-8 4 0 3 -12 -3 -27 -6 -16 -24 -64 -39 -108 -16 -44 -34 -93 -41 -110 -7 -16
-13 -34 -15 -40 -3 -14 -83 -236 -94 -260 -14 -33 -62 -164 -64 -178 -4 -15
-15 -45 -27 -72 -16 -36 -81 -220 -82 -232 0 -7 -5 -13 -10 -13 -6 0 -8 -3 -4
-6 3 -3 -4 -27 -15 -52 -11 -26 -21 -54 -23 -62 -2 -8 -13 -40 -25 -70 -12
-30 -21 -55 -20 -55 1 0 -4 -13 -10 -30 -21 -55 -51 -139 -72 -200 -11 -33
-25 -66 -30 -72 -6 -7 -7 -13 -3 -13 4 0 2 -7 -5 -15 -7 -8 -9 -15 -6 -15 4 0
1 -10 -6 -22 -7 -13 -13 -25 -13 -28 -9 -34 -19 -67 -25 -75 -4 -5 -13 -28
-19 -50 -7 -22 -16 -49 -21 -60 -5 -11 -23 -60 -40 -110 -17 -49 -36 -99 -41
-110 -5 -11 -20 -51 -33 -90 -13 -38 -38 -108 -56 -155 -17 -47 -33 -89 -34
-95 -2 -5 -6 -17 -9 -25 -4 -8 -23 -60 -42 -115 -20 -55 -39 -109 -44 -120 -5
-11 -23 -60 -41 -110 -31 -88 -60 -170 -76 -210 -4 -11 -8 -22 -9 -25 -1 -3
-5 -13 -9 -22 -4 -9 -9 -22 -10 -30 -3 -11 -12 -38 -33 -88 -3 -8 -7 -23 -8
-33 -1 -11 -8 -23 -16 -28 -8 -5 -11 -9 -7 -9 4 0 -3 -29 -17 -65 l-24 -65
1904 0 1904 0 22 33 c23 33 34 46 66 82 10 11 29 36 43 55 14 19 30 42 37 50
7 8 40 51 75 95 35 44 66 82 70 83 5 2 8 10 8 17 0 7 4 15 9 17 5 2 32 35 62
73 29 39 58 75 64 81 5 6 37 46 70 89 131 169 155 201 167 214 24 27 98 126
98 131 0 3 -625 4 -1390 2 -764 -1 -1390 0 -1390 2 0 2 16 48 36 102 20 55 41
115 47 134 6 19 15 38 20 41 5 3 8 9 7 13 -2 14 25 91 35 98 5 4 7 8 2 8 -4 0
-1 12 7 28 l14 27 750 0 751 -1 84 81 c95 89 278 262 405 382 46 43 120 113
164 156 44 42 81 77 83 77 2 0 32 28 67 63 36 34 110 105 166 157 56 52 102
97 102 100 0 3 -391 5 -870 5 l-870 0 -24 -25 c-13 -14 -96 -95 -185 -180 -89
-85 -236 -228 -328 -317 -92 -89 -168 -161 -170 -159 -3 2 31 98 149 421 22
61 47 130 56 155 9 25 16 48 14 53 -1 4 2 7 8 7 5 0 7 7 4 15 -4 8 -1 15 5 15
6 0 11 6 11 14 0 8 5 27 12 43 6 15 12 33 14 38 1 6 16 47 32 91 17 45 28 85
25 88 -4 3 -2 6 4 6 8 0 27 45 24 57 0 2 8 23 19 47 10 24 16 47 13 50 -4 3
-2 6 4 6 6 0 14 15 17 33 l6 33 1204 -3 1204 -3 24 29 c13 15 50 63 83 106 33
43 69 86 79 97 11 10 17 18 13 18 -4 0 2 10 12 23 38 43 56 66 76 93 11 15 32
41 47 58 15 17 28 34 28 38 0 4 14 21 30 38 17 17 30 34 30 38 0 4 13 21 28
39 46 53 62 73 62 77 0 5 33 45 63 77 9 10 17 23 17 29 0 5 9 15 20 22 11 7
20 17 20 21 0 5 6 15 14 22 8 8 36 44 62 80 26 36 51 65 56 65 4 0 8 7 8 15 0
8 4 15 9 15 5 0 11 6 14 14 5 11 -41 14 -282 13 -158 0 -293 3 -299 7 -7 4
-12 4 -12 -1 0 -10 -453 -9 -469 1 -6 4 -11 4 -11 -1 0 -10 -133 -9 -149 1 -6
4 -11 4 -11 -1 0 -10 -453 -9 -469 1 -6 4 -11 4 -11 -1 0 -10 -133 -9 -149 1
-6 4 -11 4 -11 -1 0 -10 -453 -9 -469 1 -6 4 -11 4 -11 -1 0 -10 -133 -9 -149
1 -6 4 -11 4 -11 -1 0 -10 -453 -9 -469 1 -6 4 -11 4 -11 -1 0 -9 -1080 -9
-1104 0 -9 4 -16 3 -16 -1z"/>
<path d="M20188 11784 c-3 -3 -225 -5 -493 -6 -416 -1 -518 -5 -590 -22 -57
-14 -235 -95 -235 -108 0 -4 -6 -8 -12 -8 -7 0 -24 -9 -38 -20 -14 -11 -52
-41 -85 -67 -80 -62 -217 -203 -283 -289 -28 -38 -56 -73 -60 -79 -19 -25 -82
-126 -113 -180 -66 -116 -132 -262 -124 -275 3 -6 2 -10 -3 -10 -7 0 -25 -55
-38 -115 -28 -127 -22 -320 12 -428 4 -12 8 -33 9 -47 5 -46 48 -158 102 -265
79 -156 196 -302 320 -396 32 -24 60 -46 63 -49 17 -17 180 -102 180 -93 0 3
6 1 13 -4 11 -10 80 -28 144 -40 15 -2 381 -6 813 -7 755 -2 787 -3 825 -22
64 -31 79 -74 79 -220 0 -139 -11 -168 -83 -219 l-43 -30 -1241 -2 c-683 -1
-1263 -2 -1288 -3 -45 0 -48 -2 -90 -57 -24 -32 -46 -60 -49 -63 -3 -3 -37
-45 -75 -95 -38 -49 -72 -92 -75 -95 -3 -3 -17 -21 -30 -40 -13 -19 -27 -37
-31 -40 -3 -3 -47 -58 -97 -123 -50 -65 -98 -125 -107 -133 -8 -9 -15 -19 -15
-22 0 -4 -10 -18 -23 -32 -12 -14 -34 -41 -47 -60 -14 -19 -32 -42 -40 -51 -8
-9 -33 -40 -55 -69 -22 -29 -46 -58 -52 -65 -7 -8 -13 -17 -13 -21 0 -3 -10
-15 -22 -25 -21 -19 25 -19 1951 -19 1785 0 1979 2 2044 16 63 14 203 68 217
84 3 3 17 11 33 19 15 8 27 18 27 23 0 4 5 8 10 8 12 0 11 -1 105 78 128 108
237 239 330 396 48 81 107 204 108 224 0 6 5 12 10 12 6 0 7 3 4 7 -4 3 -2 12
4 19 5 7 12 24 15 38 2 14 9 38 15 53 7 16 13 37 15 48 2 11 10 53 17 93 10
48 14 118 12 205 -4 147 -8 185 -31 287 -8 37 -13 63 -16 85 -2 11 -6 22 -10
25 -4 3 -9 17 -11 30 -2 14 -9 38 -15 53 -7 16 -12 31 -12 35 -1 4 -9 25 -20
47 -11 22 -19 43 -20 46 -1 15 -103 189 -111 189 -5 0 -9 6 -9 14 0 22 -158
179 -230 228 -57 39 -92 58 -110 60 -3 0 -14 7 -25 14 -11 8 -29 14 -42 14
-12 0 -25 5 -28 10 -4 6 -11 8 -16 5 -5 -4 -15 -3 -21 2 -15 9 -73 16 -145 17
-29 0 -53 4 -53 9 0 4 -5 5 -11 1 -13 -8 -1461 -8 -1498 0 -49 11 -101 56
-123 106 -15 35 -19 189 -6 239 15 58 72 114 134 131 39 11 280 14 1300 14
l1252 1 23 30 c13 17 26 32 30 35 3 3 10 12 15 21 5 9 23 34 41 55 18 21 75
95 128 164 53 69 106 137 118 151 12 15 29 37 37 49 8 12 20 28 25 34 6 6 31
38 57 71 26 33 53 67 60 75 7 8 35 44 63 80 27 36 52 67 55 70 10 9 107 135
125 162 l17 28 -168 -1 c-93 0 -173 1 -179 2 -5 1 -14 0 -20 -1 -32 -7 -56 -6
-61 2 -3 4 -10 6 -15 2 -8 -5 -356 -8 -384 -3 -5 1 -14 0 -20 -1 -32 -7 -56
-6 -61 2 -3 4 -10 6 -15 2 -8 -5 -1314 -8 -1344 -3 -5 1 -14 0 -20 -1 -32 -7
-56 -6 -61 2 -3 4 -10 6 -15 2 -12 -7 -378 -8 -386 0 -3 3 -13 2 -22 -2 -19
-9 -42 -9 -57 0 -6 4 -14 5 -16 2z"/>
</g>
</svg>
