<svg width="21" height="20" viewBox="0 0 21 20" fill="none" xmlns="http://www.w3.org/2000/svg">
<path fill-rule="evenodd" clip-rule="evenodd" d="M0.75 10C0.75 4.47715 5.22715 0 10.75 0C16.2728 0 20.75 4.47715 20.75 10C20.75 15.5228 16.2728 20 10.75 20C5.22715 20 0.75 15.5228 0.75 10ZM10.75 5C13.5 5 15.75 7.25 15.75 10C15.75 12.5 13.9375 14.625 11.4375 15V11.4375H12.625L12.875 10H11.5V9.0625C11.5 8.6875 11.6875 8.3125 12.3125 8.3125H12.9375V7.0625C12.9375 7.0625 12.375 6.9375 11.8125 6.9375C10.6875 6.9375 9.9375 7.625 9.9375 8.875V10H8.6875V11.4375H9.9375V14.9375C7.5625 14.5625 5.75 12.5 5.75 10C5.75 7.25 8 5 10.75 5Z" fill="white"/>
</svg>
