<svg width="21" height="20" viewBox="0 0 21 20" fill="none" xmlns="http://www.w3.org/2000/svg">
<path d="M10.75 11.75C9.8125 11.75 9 11 9 10C9 9.0625 9.75 8.25 10.75 8.25C11.6875 8.25 12.5 9 12.5 10C12.5 10.9375 11.6875 11.75 10.75 11.75Z" fill="white"/>
<path fill-rule="evenodd" clip-rule="evenodd" d="M12.875 5.75H8.625C8.125 5.8125 7.875 5.875 7.6875 5.9375C7.4375 6 7.25 6.125 7.0625 6.3125C6.91413 6.46087 6.84403 6.60923 6.7593 6.78856C6.73697 6.83583 6.71356 6.88537 6.6875 6.9375C6.67783 6.9665 6.66667 6.99701 6.6547 7.0297C6.58932 7.20833 6.5 7.45235 6.5 7.875V12.125C6.5625 12.625 6.625 12.875 6.6875 13.0625C6.75 13.3125 6.875 13.5 7.0625 13.6875C7.21087 13.8359 7.35923 13.906 7.53857 13.9907C7.58587 14.013 7.63532 14.0364 7.6875 14.0625C7.71651 14.0722 7.74701 14.0833 7.7797 14.0953C7.95833 14.1607 8.20235 14.25 8.625 14.25H12.875C13.375 14.1875 13.625 14.125 13.8125 14.0625C14.0625 14 14.25 13.875 14.4375 13.6875C14.5859 13.5391 14.656 13.3908 14.7407 13.2114C14.763 13.1641 14.7864 13.1147 14.8125 13.0625C14.8222 13.0335 14.8333 13.003 14.8453 12.9703C14.9107 12.7917 15 12.5476 15 12.125V7.875C14.9375 7.375 14.875 7.125 14.8125 6.9375C14.75 6.6875 14.625 6.5 14.4375 6.3125C14.2891 6.16413 14.1408 6.09403 13.9614 6.0093C13.9142 5.98699 13.8646 5.96354 13.8125 5.9375C13.7835 5.92783 13.753 5.91667 13.7203 5.9047C13.5417 5.83931 13.2977 5.75 12.875 5.75ZM10.75 7.3125C9.25 7.3125 8.0625 8.5 8.0625 10C8.0625 11.5 9.25 12.6875 10.75 12.6875C12.25 12.6875 13.4375 11.5 13.4375 10C13.4375 8.5 12.25 7.3125 10.75 7.3125ZM14.125 7.25C14.125 7.59518 13.8452 7.875 13.5 7.875C13.1548 7.875 12.875 7.59518 12.875 7.25C12.875 6.90482 13.1548 6.625 13.5 6.625C13.8452 6.625 14.125 6.90482 14.125 7.25Z" fill="white"/>
<path fill-rule="evenodd" clip-rule="evenodd" d="M0.75 10C0.75 4.47715 5.22715 0 10.75 0C16.2728 0 20.75 4.47715 20.75 10C20.75 15.5228 16.2728 20 10.75 20C5.22715 20 0.75 15.5228 0.75 10ZM8.625 4.8125H12.875C13.4375 4.875 13.8125 4.9375 14.125 5.0625C14.5 5.25 14.75 5.375 15.0625 5.6875C15.375 6 15.5625 6.3125 15.6875 6.625C15.8125 6.9375 15.9375 7.3125 15.9375 7.875V12.125C15.875 12.6875 15.8125 13.0625 15.6875 13.375C15.5 13.75 15.375 14 15.0625 14.3125C14.75 14.625 14.4375 14.8125 14.125 14.9375C13.8125 15.0625 13.4375 15.1875 12.875 15.1875H8.625C8.0625 15.125 7.6875 15.0625 7.375 14.9375C7 14.75 6.75 14.625 6.4375 14.3125C6.125 14 5.9375 13.6875 5.8125 13.375C5.6875 13.0625 5.5625 12.6875 5.5625 12.125V7.875C5.625 7.3125 5.6875 6.9375 5.8125 6.625C6 6.25 6.125 6 6.4375 5.6875C6.75 5.375 7.0625 5.1875 7.375 5.0625C7.6875 4.9375 8.0625 4.8125 8.625 4.8125Z" fill="white"/>
</svg>
