<svg width="21" height="20" viewBox="0 0 21 20" fill="none" xmlns="http://www.w3.org/2000/svg">
<path fill-rule="evenodd" clip-rule="evenodd" d="M0.75 10C0.75 4.47715 5.22715 0 10.75 0C16.2728 0 20.75 4.47715 20.75 10C20.75 15.5228 16.2728 20 10.75 20C5.22715 20 0.75 15.5228 0.75 10ZM5.875 8.3125V15H8V8.3125H5.875ZM5.75 6.1875C5.75 6.875 6.25 7.375 6.9375 7.375C7.625 7.375 8.125 6.875 8.125 6.1875C8.125 5.5 7.625 5 6.9375 5C6.3125 5 5.75 5.5 5.75 6.1875ZM13.625 15H15.625V10.875C15.625 8.8125 14.375 8.125 13.1875 8.125C12.125 8.125 11.375 8.8125 11.1875 9.25V8.3125H9.1875V15H11.3125V11.4375C11.3125 10.5 11.9375 10 12.5625 10C13.1875 10 13.625 10.3125 13.625 11.375V15Z" fill="white"/>
</svg>
